<?xml version="1.0" encoding="UTF-8" standalone="no"?>
<!DOCTYPE svg PUBLIC "-//W3C//DTD SVG 1.1//EN"
 "http://www.w3.org/Graphics/SVG/1.1/DTD/svg11.dtd">
<!-- Generated by graphviz version 2.36.0 (20140111.2315)
 -->
<!-- Title: BacktraceException.cpp Pages: 1 -->
<svg width="497pt" height="94pt"
 viewBox="0.00 0.00 497.00 94.00" xmlns="http://www.w3.org/2000/svg" xmlns:xlink="http://www.w3.org/1999/xlink">
<g id="graph0" class="graph" transform="scale(1 1) rotate(0) translate(4 90)">
<title>BacktraceException.cpp</title>
<polygon fill="white" stroke="none" points="-4,4 -4,-90 493,-90 493,4 -4,4"/>
<!-- Node1 -->
<g id="node1" class="node"><title>Node1</title>
<polygon fill="#bfbfbf" stroke="black" points="222.5,-67 222.5,-85 337.5,-85 337.5,-67 222.5,-67"/>
<text text-anchor="middle" x="280" y="-73.8" font-family="Helvetica,sans-Serif" font-size="9.00">BacktraceException.cpp</text>
</g>
<!-- Node2 -->
<g id="node2" class="node"><title>Node2</title>
<polygon fill="white" stroke="#bfbfbf" points="-0.5,-1 -0.5,-29 106.5,-29 106.5,-1 -0.5,-1"/>
<text text-anchor="start" x="7.5" y="-17.8" font-family="Helvetica,sans-Serif" font-size="9.00">BacktraceException</text>
<text text-anchor="middle" x="53" y="-7.8" font-family="Helvetica,sans-Serif" font-size="9.00">/BacktraceException.h</text>
</g>
<!-- Node1&#45;&gt;Node2 -->
<g id="edge1" class="edge"><title>Node1&#45;&gt;Node2</title>
<path fill="none" stroke="midnightblue" d="M248.913,-66.92C214.104,-57.8728 156.857,-42.9937 113.211,-31.6496"/>
<polygon fill="midnightblue" stroke="midnightblue" points="113.835,-28.1956 103.276,-29.0674 112.074,-34.9705 113.835,-28.1956"/>
</g>
<!-- Node3 -->
<g id="node3" class="node"><title>Node3</title>
<polygon fill="white" stroke="#bfbfbf" points="124.5,-6 124.5,-24 167.5,-24 167.5,-6 124.5,-6"/>
<text text-anchor="middle" x="146" y="-12.8" font-family="Helvetica,sans-Serif" font-size="9.00">cstdlib</text>
</g>
<!-- Node1&#45;&gt;Node3 -->
<g id="edge2" class="edge"><title>Node1&#45;&gt;Node3</title>
<path fill="none" stroke="midnightblue" d="M261.363,-66.9393C240.708,-57.9871 206.425,-43.0717 177,-30 175.651,-29.4006 174.269,-28.7848 172.875,-28.1615"/>
<polygon fill="midnightblue" stroke="midnightblue" points="174.244,-24.9396 163.688,-24.0333 171.375,-31.3246 174.244,-24.9396"/>
</g>
<!-- Node4 -->
<g id="node4" class="node"><title>Node4</title>
<polygon fill="white" stroke="#bfbfbf" points="186,-6 186,-24 236,-24 236,-6 186,-6"/>
<text text-anchor="middle" x="211" y="-12.8" font-family="Helvetica,sans-Serif" font-size="9.00">memory</text>
</g>
<!-- Node1&#45;&gt;Node4 -->
<g id="edge3" class="edge"><title>Node1&#45;&gt;Node4</title>
<path fill="none" stroke="midnightblue" d="M270.406,-66.7963C259.592,-57.5496 241.788,-42.3257 228.485,-30.9513"/>
<polygon fill="midnightblue" stroke="midnightblue" points="230.388,-27.9728 220.513,-24.134 225.838,-33.293 230.388,-27.9728"/>
</g>
<!-- Node5 -->
<g id="node5" class="node"><title>Node5</title>
<polygon fill="white" stroke="#bfbfbf" points="254,-6 254,-24 306,-24 306,-6 254,-6"/>
<text text-anchor="middle" x="280" y="-12.8" font-family="Helvetica,sans-Serif" font-size="9.00">iostream</text>
</g>
<!-- Node1&#45;&gt;Node5 -->
<g id="edge4" class="edge"><title>Node1&#45;&gt;Node5</title>
<path fill="none" stroke="midnightblue" d="M280,-66.7963C280,-58.4303 280,-45.1713 280,-34.2974"/>
<polygon fill="midnightblue" stroke="midnightblue" points="283.5,-34.134 280,-24.134 276.5,-34.1341 283.5,-34.134"/>
</g>
<!-- Node6 -->
<g id="node6" class="node"><title>Node6</title>
<polygon fill="white" stroke="#bfbfbf" points="324.5,-6 324.5,-24 363.5,-24 363.5,-6 324.5,-6"/>
<text text-anchor="middle" x="344" y="-12.8" font-family="Helvetica,sans-Serif" font-size="9.00">string</text>
</g>
<!-- Node1&#45;&gt;Node6 -->
<g id="edge5" class="edge"><title>Node1&#45;&gt;Node6</title>
<path fill="none" stroke="midnightblue" d="M288.899,-66.7963C298.929,-57.5496 315.443,-42.3257 327.782,-30.9513"/>
<polygon fill="midnightblue" stroke="midnightblue" points="330.197,-33.4854 335.177,-24.134 325.452,-28.3387 330.197,-33.4854"/>
</g>
<!-- Node7 -->
<g id="node7" class="node"><title>Node7</title>
<polygon fill="white" stroke="#bfbfbf" points="381.5,-6 381.5,-24 430.5,-24 430.5,-6 381.5,-6"/>
<text text-anchor="middle" x="406" y="-12.8" font-family="Helvetica,sans-Serif" font-size="9.00">sstream</text>
</g>
<!-- Node1&#45;&gt;Node7 -->
<g id="edge6" class="edge"><title>Node1&#45;&gt;Node7</title>
<path fill="none" stroke="midnightblue" d="M297.256,-66.92C318.438,-57.0014 354.589,-40.0734 379.351,-28.4784"/>
<polygon fill="midnightblue" stroke="midnightblue" points="380.976,-31.5822 388.548,-24.1717 378.008,-25.2427 380.976,-31.5822"/>
</g>
<!-- Node8 -->
<g id="node8" class="node"><title>Node8</title>
<polygon fill="white" stroke="#bfbfbf" points="448.5,-6 448.5,-24 489.5,-24 489.5,-6 448.5,-6"/>
<text text-anchor="middle" x="469" y="-12.8" font-family="Helvetica,sans-Serif" font-size="9.00">vector</text>
</g>
<!-- Node1&#45;&gt;Node8 -->
<g id="edge7" class="edge"><title>Node1&#45;&gt;Node8</title>
<path fill="none" stroke="midnightblue" d="M314.317,-66.9862C346.868,-58.9884 396.921,-45.6571 439,-30 440.592,-29.4075 442.217,-28.7651 443.845,-28.0923"/>
<polygon fill="midnightblue" stroke="midnightblue" points="445.279,-31.2852 453.011,-24.0413 442.449,-24.8827 445.279,-31.2852"/>
</g>
</g>
</svg>
