<?xml version="1.0" encoding="UTF-8" standalone="no"?>
<!DOCTYPE svg PUBLIC "-//W3C//DTD SVG 1.1//EN"
 "http://www.w3.org/Graphics/SVG/1.1/DTD/svg11.dtd">
<!-- Generated by graphviz version 2.36.0 (20140111.2315)
 -->
<!-- Title: BacktraceException.cpp Pages: 1 -->
<svg width="479pt" height="150pt"
 viewBox="0.00 0.00 479.00 150.00" xmlns="http://www.w3.org/2000/svg" xmlns:xlink="http://www.w3.org/1999/xlink">
<g id="graph0" class="graph" transform="scale(1 1) rotate(0) translate(4 146)">
<title>BacktraceException.cpp</title>
<polygon fill="white" stroke="none" points="-4,4 -4,-146 475,-146 475,4 -4,4"/>
<!-- Node1 -->
<g id="node1" class="node"><title>Node1</title>
<polygon fill="#bfbfbf" stroke="black" points="192.5,-123 192.5,-141 307.5,-141 307.5,-123 192.5,-123"/>
<text text-anchor="middle" x="250" y="-129.8" font-family="Helvetica,sans-Serif" font-size="9.00">BacktraceException.cpp</text>
</g>
<!-- Node2 -->
<g id="node2" class="node"><title>Node2</title>
<g id="a_node2"><a xlink:href="BacktraceException_8h.html" target="_top" xlink:title="BacktraceException class declaration and inline member functions. ">
<polygon fill="white" stroke="black" points="-0.5,-57 -0.5,-85 106.5,-85 106.5,-57 -0.5,-57"/>
<text text-anchor="start" x="7.5" y="-73.8" font-family="Helvetica,sans-Serif" font-size="9.00">BacktraceException</text>
<text text-anchor="middle" x="53" y="-63.8" font-family="Helvetica,sans-Serif" font-size="9.00">/BacktraceException.h</text>
</a>
</g>
</g>
<!-- Node1&#45;&gt;Node2 -->
<g id="edge1" class="edge"><title>Node1&#45;&gt;Node2</title>
<path fill="none" stroke="midnightblue" d="M223.021,-122.92C193.13,-113.968 144.175,-99.3063 106.454,-88.009"/>
<polygon fill="midnightblue" stroke="midnightblue" points="107.216,-84.5836 96.6319,-85.0674 105.207,-91.2894 107.216,-84.5836"/>
</g>
<!-- Node4 -->
<g id="node4" class="node"><title>Node4</title>
<polygon fill="white" stroke="#bfbfbf" points="107.5,-1 107.5,-19 146.5,-19 146.5,-1 107.5,-1"/>
<text text-anchor="middle" x="127" y="-7.8" font-family="Helvetica,sans-Serif" font-size="9.00">string</text>
</g>
<!-- Node1&#45;&gt;Node4 -->
<g id="edge7" class="edge"><title>Node1&#45;&gt;Node4</title>
<path fill="none" stroke="midnightblue" d="M218.913,-122.955C198.31,-116.177 172.035,-104.549 155,-86 140.334,-70.0306 133.145,-45.6735 129.766,-29.0813"/>
<polygon fill="midnightblue" stroke="midnightblue" points="133.177,-28.2719 127.991,-19.0335 126.284,-29.49 133.177,-28.2719"/>
</g>
<!-- Node5 -->
<g id="node5" class="node"><title>Node5</title>
<polygon fill="white" stroke="#bfbfbf" points="163.5,-62 163.5,-80 206.5,-80 206.5,-62 163.5,-62"/>
<text text-anchor="middle" x="185" y="-68.8" font-family="Helvetica,sans-Serif" font-size="9.00">cstdlib</text>
</g>
<!-- Node1&#45;&gt;Node5 -->
<g id="edge4" class="edge"><title>Node1&#45;&gt;Node5</title>
<path fill="none" stroke="midnightblue" d="M240.962,-122.796C230.775,-113.55 214.003,-98.3257 201.472,-86.9513"/>
<polygon fill="midnightblue" stroke="midnightblue" points="203.718,-84.2635 193.961,-80.134 199.013,-89.4467 203.718,-84.2635"/>
</g>
<!-- Node6 -->
<g id="node6" class="node"><title>Node6</title>
<polygon fill="white" stroke="#bfbfbf" points="225,-62 225,-80 275,-80 275,-62 225,-62"/>
<text text-anchor="middle" x="250" y="-68.8" font-family="Helvetica,sans-Serif" font-size="9.00">memory</text>
</g>
<!-- Node1&#45;&gt;Node6 -->
<g id="edge5" class="edge"><title>Node1&#45;&gt;Node6</title>
<path fill="none" stroke="midnightblue" d="M250,-122.796C250,-114.43 250,-101.171 250,-90.2974"/>
<polygon fill="midnightblue" stroke="midnightblue" points="253.5,-90.134 250,-80.134 246.5,-90.1341 253.5,-90.134"/>
</g>
<!-- Node7 -->
<g id="node7" class="node"><title>Node7</title>
<polygon fill="white" stroke="#bfbfbf" points="293,-62 293,-80 345,-80 345,-62 293,-62"/>
<text text-anchor="middle" x="319" y="-68.8" font-family="Helvetica,sans-Serif" font-size="9.00">iostream</text>
</g>
<!-- Node1&#45;&gt;Node7 -->
<g id="edge6" class="edge"><title>Node1&#45;&gt;Node7</title>
<path fill="none" stroke="midnightblue" d="M259.594,-122.796C270.408,-113.55 288.212,-98.3257 301.515,-86.9513"/>
<polygon fill="midnightblue" stroke="midnightblue" points="304.162,-89.293 309.487,-80.134 299.612,-83.9728 304.162,-89.293"/>
</g>
<!-- Node8 -->
<g id="node8" class="node"><title>Node8</title>
<polygon fill="white" stroke="#bfbfbf" points="363.5,-62 363.5,-80 412.5,-80 412.5,-62 363.5,-62"/>
<text text-anchor="middle" x="388" y="-68.8" font-family="Helvetica,sans-Serif" font-size="9.00">sstream</text>
</g>
<!-- Node1&#45;&gt;Node8 -->
<g id="edge8" class="edge"><title>Node1&#45;&gt;Node8</title>
<path fill="none" stroke="midnightblue" d="M268.899,-122.92C292.304,-112.914 332.395,-95.7732 359.53,-84.1719"/>
<polygon fill="midnightblue" stroke="midnightblue" points="361.067,-87.3212 368.886,-80.1717 358.316,-80.8847 361.067,-87.3212"/>
</g>
<!-- Node9 -->
<g id="node9" class="node"><title>Node9</title>
<polygon fill="white" stroke="#bfbfbf" points="430.5,-62 430.5,-80 471.5,-80 471.5,-62 430.5,-62"/>
<text text-anchor="middle" x="451" y="-68.8" font-family="Helvetica,sans-Serif" font-size="9.00">vector</text>
</g>
<!-- Node1&#45;&gt;Node9 -->
<g id="edge9" class="edge"><title>Node1&#45;&gt;Node9</title>
<path fill="none" stroke="midnightblue" d="M288.293,-122.994C323.348,-115.18 376.398,-102.128 421,-86 422.598,-85.4222 424.227,-84.7912 425.858,-84.1269"/>
<polygon fill="midnightblue" stroke="midnightblue" points="427.283,-87.3238 435.032,-80.098 424.468,-80.9147 427.283,-87.3238"/>
</g>
<!-- Node3 -->
<g id="node3" class="node"><title>Node3</title>
<polygon fill="white" stroke="#bfbfbf" points="25,-1 25,-19 81,-19 81,-1 25,-1"/>
<text text-anchor="middle" x="53" y="-7.8" font-family="Helvetica,sans-Serif" font-size="9.00">exception</text>
</g>
<!-- Node2&#45;&gt;Node3 -->
<g id="edge2" class="edge"><title>Node2&#45;&gt;Node3</title>
<path fill="none" stroke="midnightblue" d="M53,-56.906C53,-48.7901 53,-38.245 53,-29.3086"/>
<polygon fill="midnightblue" stroke="midnightblue" points="56.5001,-29.1533 53,-19.1534 49.5001,-29.1534 56.5001,-29.1533"/>
</g>
<!-- Node2&#45;&gt;Node4 -->
<g id="edge3" class="edge"><title>Node2&#45;&gt;Node4</title>
<path fill="none" stroke="midnightblue" d="M69.423,-56.906C81.0726,-47.6178 96.7128,-35.1479 108.752,-25.549"/>
<polygon fill="midnightblue" stroke="midnightblue" points="111.137,-28.1241 116.774,-19.1534 106.773,-22.6508 111.137,-28.1241"/>
</g>
</g>
</svg>
