<?xml version="1.0" encoding="UTF-8" standalone="no"?>
<!DOCTYPE svg PUBLIC "-//W3C//DTD SVG 1.1//EN"
 "http://www.w3.org/Graphics/SVG/1.1/DTD/svg11.dtd">
<!-- Generated by graphviz version 2.38.0 (20140413.2041)
 -->
<!-- Title: BacktraceException.h Pages: 1 -->
<svg width="123pt" height="82pt"
 viewBox="0.00 0.00 123.00 82.00" xmlns="http://www.w3.org/2000/svg" xmlns:xlink="http://www.w3.org/1999/xlink">
<g id="graph0" class="graph" transform="scale(1 1) rotate(0) translate(4 78)">
<title>BacktraceException.h</title>
<polygon fill="white" stroke="none" points="-4,4 -4,-78 119,-78 119,4 -4,4"/>
<!-- Node1 -->
<g id="node1" class="node"><title>Node1</title>
<polygon fill="#bfbfbf" stroke="black" points="5,-55.5 5,-73.5 110,-73.5 110,-55.5 5,-55.5"/>
<text text-anchor="middle" x="57.5" y="-62.3" font-family="Helvetica,sans-Serif" font-size="9.00">BacktraceException.h</text>
</g>
<!-- Node2 -->
<g id="node2" class="node"><title>Node2</title>
<g id="a_node2"><a xlink:href="BacktraceException_8cpp.html" target="_top" xlink:title="BacktraceException class member function definitions. ">
<polygon fill="white" stroke="black" points="-7.10543e-15,-0.5 -7.10543e-15,-18.5 115,-18.5 115,-0.5 -7.10543e-15,-0.5"/>
<text text-anchor="middle" x="57.5" y="-7.3" font-family="Helvetica,sans-Serif" font-size="9.00">BacktraceException.cpp</text>
</a>
</g>
</g>
<!-- Node1&#45;&gt;Node2 -->
<g id="edge1" class="edge"><title>Node1&#45;&gt;Node2</title>
<path fill="none" stroke="midnightblue" d="M57.5,-45.1746C57.5,-36.0945 57.5,-25.5949 57.5,-18.5496"/>
<polygon fill="midnightblue" stroke="midnightblue" points="54.0001,-45.2187 57.5,-55.2188 61.0001,-45.2188 54.0001,-45.2187"/>
</g>
</g>
</svg>
