<?xml version="1.0" encoding="UTF-8" standalone="no"?>
<!DOCTYPE svg PUBLIC "-//W3C//DTD SVG 1.1//EN"
 "http://www.w3.org/Graphics/SVG/1.1/DTD/svg11.dtd">
<!-- Generated by graphviz version 2.36.0 (20140111.2315)
 -->
<!-- Title: BacktraceException.h Pages: 1 -->
<svg width="121pt" height="84pt"
 viewBox="0.00 0.00 121.00 84.00" xmlns="http://www.w3.org/2000/svg" xmlns:xlink="http://www.w3.org/1999/xlink">
<g id="graph0" class="graph" transform="scale(1 1) rotate(0) translate(4 80)">
<title>BacktraceException.h</title>
<polygon fill="white" stroke="none" points="-4,4 -4,-80 117,-80 117,4 -4,4"/>
<!-- Node1 -->
<g id="node1" class="node"><title>Node1</title>
<polygon fill="#bfbfbf" stroke="black" points="8.5,-57 8.5,-75 113.5,-75 113.5,-57 8.5,-57"/>
<text text-anchor="middle" x="61" y="-63.8" font-family="Helvetica,sans-Serif" font-size="9.00">BacktraceException.h</text>
</g>
<!-- Node2 -->
<g id="node2" class="node"><title>Node2</title>
<polygon fill="white" stroke="#bfbfbf" points="0,-1 0,-19 56,-19 56,-1 0,-1"/>
<text text-anchor="middle" x="28" y="-7.8" font-family="Helvetica,sans-Serif" font-size="9.00">exception</text>
</g>
<!-- Node1&#45;&gt;Node2 -->
<g id="edge1" class="edge"><title>Node1&#45;&gt;Node2</title>
<path fill="none" stroke="midnightblue" d="M55.8438,-56.5625C51.1669,-48.9094 44.1333,-37.3999 38.3057,-27.8638"/>
<polygon fill="midnightblue" stroke="midnightblue" points="41.213,-25.9092 33.012,-19.2014 35.24,-29.5594 41.213,-25.9092"/>
</g>
<!-- Node3 -->
<g id="node3" class="node"><title>Node3</title>
<polygon fill="white" stroke="#bfbfbf" points="74.5,-1 74.5,-19 113.5,-19 113.5,-1 74.5,-1"/>
<text text-anchor="middle" x="94" y="-7.8" font-family="Helvetica,sans-Serif" font-size="9.00">string</text>
</g>
<!-- Node1&#45;&gt;Node3 -->
<g id="edge2" class="edge"><title>Node1&#45;&gt;Node3</title>
<path fill="none" stroke="midnightblue" d="M66.1562,-56.5625C70.8331,-48.9094 77.8667,-37.3999 83.6943,-27.8638"/>
<polygon fill="midnightblue" stroke="midnightblue" points="86.76,-29.5594 88.988,-19.2014 80.787,-25.9092 86.76,-29.5594"/>
</g>
</g>
</svg>
