<?xml version="1.0" encoding="UTF-8" standalone="no"?>
<!DOCTYPE svg PUBLIC "-//W3C//DTD SVG 1.1//EN"
 "http://www.w3.org/Graphics/SVG/1.1/DTD/svg11.dtd">
<!-- Generated by graphviz version 2.38.0 (20140413.2041)
 -->
<!-- Title: BacktraceException.h Pages: 1 -->
<svg width="122pt" height="82pt"
 viewBox="0.00 0.00 121.50 82.00" xmlns="http://www.w3.org/2000/svg" xmlns:xlink="http://www.w3.org/1999/xlink">
<g id="graph0" class="graph" transform="scale(1 1) rotate(0) translate(4 78)">
<title>BacktraceException.h</title>
<polygon fill="white" stroke="none" points="-4,4 -4,-78 117.5,-78 117.5,4 -4,4"/>
<!-- Node1 -->
<g id="node1" class="node"><title>Node1</title>
<polygon fill="#bfbfbf" stroke="black" points="8.5,-55.5 8.5,-73.5 113.5,-73.5 113.5,-55.5 8.5,-55.5"/>
<text text-anchor="middle" x="61" y="-62.3" font-family="Helvetica,sans-Serif" font-size="9.00">BacktraceException.h</text>
</g>
<!-- Node2 -->
<g id="node2" class="node"><title>Node2</title>
<polygon fill="white" stroke="#bfbfbf" points="0,-0.5 0,-18.5 56,-18.5 56,-0.5 0,-0.5"/>
<text text-anchor="middle" x="28" y="-7.3" font-family="Helvetica,sans-Serif" font-size="9.00">exception</text>
</g>
<!-- Node1&#45;&gt;Node2 -->
<g id="edge1" class="edge"><title>Node1&#45;&gt;Node2</title>
<path fill="none" stroke="midnightblue" d="M55.8438,-55.2188C51.1669,-47.7074 44.1333,-36.411 38.3057,-27.0515"/>
<polygon fill="midnightblue" stroke="midnightblue" points="41.2688,-25.1886 33.012,-18.5496 35.3265,-28.8885 41.2688,-25.1886"/>
</g>
<!-- Node3 -->
<g id="node3" class="node"><title>Node3</title>
<polygon fill="white" stroke="#bfbfbf" points="74.5,-0.5 74.5,-18.5 113.5,-18.5 113.5,-0.5 74.5,-0.5"/>
<text text-anchor="middle" x="94" y="-7.3" font-family="Helvetica,sans-Serif" font-size="9.00">string</text>
</g>
<!-- Node1&#45;&gt;Node3 -->
<g id="edge2" class="edge"><title>Node1&#45;&gt;Node3</title>
<path fill="none" stroke="midnightblue" d="M66.1562,-55.2188C70.8331,-47.7074 77.8667,-36.411 83.6943,-27.0515"/>
<polygon fill="midnightblue" stroke="midnightblue" points="86.6735,-28.8885 88.988,-18.5496 80.7312,-25.1886 86.6735,-28.8885"/>
</g>
</g>
</svg>
