<?xml version="1.0" encoding="UTF-8" standalone="no"?>
<!DOCTYPE svg PUBLIC "-//W3C//DTD SVG 1.1//EN"
 "http://www.w3.org/Graphics/SVG/1.1/DTD/svg11.dtd">
<!-- Generated by graphviz version 2.38.0 (20140413.2041)
 -->
<!-- Title: BacktraceException.cpp Pages: 1 -->
<svg width="480pt" height="147pt"
 viewBox="0.00 0.00 480.00 147.00" xmlns="http://www.w3.org/2000/svg" xmlns:xlink="http://www.w3.org/1999/xlink">
<g id="graph0" class="graph" transform="scale(1 1) rotate(0) translate(4 143)">
<title>BacktraceException.cpp</title>
<polygon fill="white" stroke="none" points="-4,4 -4,-143 476,-143 476,4 -4,4"/>
<!-- Node1 -->
<g id="node1" class="node"><title>Node1</title>
<polygon fill="#bfbfbf" stroke="black" points="193,-120.5 193,-138.5 308,-138.5 308,-120.5 193,-120.5"/>
<text text-anchor="middle" x="250.5" y="-127.3" font-family="Helvetica,sans-Serif" font-size="9.00">BacktraceException.cpp</text>
</g>
<!-- Node2 -->
<g id="node2" class="node"><title>Node2</title>
<g id="a_node2"><a xlink:href="BacktraceException_8h.html" target="_top" xlink:title="BacktraceException class declaration and inline member functions. ">
<polygon fill="white" stroke="black" points="0,-55.5 0,-83.5 107,-83.5 107,-55.5 0,-55.5"/>
<text text-anchor="start" x="8" y="-72.3" font-family="Helvetica,sans-Serif" font-size="9.00">BacktraceException</text>
<text text-anchor="middle" x="53.5" y="-62.3" font-family="Helvetica,sans-Serif" font-size="9.00">/BacktraceException.h</text>
</a>
</g>
</g>
<!-- Node1&#45;&gt;Node2 -->
<g id="edge1" class="edge"><title>Node1&#45;&gt;Node2</title>
<path fill="none" stroke="midnightblue" d="M223.108,-120.435C193.313,-111.663 144.933,-97.4193 107.453,-86.3847"/>
<polygon fill="midnightblue" stroke="midnightblue" points="108.269,-82.9764 97.6876,-83.5096 106.292,-89.6914 108.269,-82.9764"/>
</g>
<!-- Node4 -->
<g id="node4" class="node"><title>Node4</title>
<polygon fill="white" stroke="#bfbfbf" points="108,-0.5 108,-18.5 147,-18.5 147,-0.5 108,-0.5"/>
<text text-anchor="middle" x="127.5" y="-7.3" font-family="Helvetica,sans-Serif" font-size="9.00">string</text>
</g>
<!-- Node1&#45;&gt;Node4 -->
<g id="edge7" class="edge"><title>Node1&#45;&gt;Node4</title>
<path fill="none" stroke="midnightblue" d="M219.007,-120.446C198.491,-113.744 172.478,-102.285 155.5,-84 141.157,-68.5525 133.93,-45.0078 130.453,-28.749"/>
<polygon fill="midnightblue" stroke="midnightblue" points="133.88,-28.0334 128.603,-18.8459 126.999,-29.3186 133.88,-28.0334"/>
</g>
<!-- Node5 -->
<g id="node5" class="node"><title>Node5</title>
<polygon fill="white" stroke="#bfbfbf" points="164,-60.5 164,-78.5 207,-78.5 207,-60.5 164,-60.5"/>
<text text-anchor="middle" x="185.5" y="-67.3" font-family="Helvetica,sans-Serif" font-size="9.00">cstdlib</text>
</g>
<!-- Node1&#45;&gt;Node5 -->
<g id="edge4" class="edge"><title>Node1&#45;&gt;Node5</title>
<path fill="none" stroke="midnightblue" d="M241.462,-120.435C231.389,-111.448 214.879,-96.7151 202.396,-85.5762"/>
<polygon fill="midnightblue" stroke="midnightblue" points="204.674,-82.9182 194.882,-78.8718 200.013,-88.1412 204.674,-82.9182"/>
</g>
<!-- Node6 -->
<g id="node6" class="node"><title>Node6</title>
<polygon fill="white" stroke="#bfbfbf" points="225.5,-60.5 225.5,-78.5 275.5,-78.5 275.5,-60.5 225.5,-60.5"/>
<text text-anchor="middle" x="250.5" y="-67.3" font-family="Helvetica,sans-Serif" font-size="9.00">memory</text>
</g>
<!-- Node1&#45;&gt;Node6 -->
<g id="edge5" class="edge"><title>Node1&#45;&gt;Node6</title>
<path fill="none" stroke="midnightblue" d="M250.5,-120.435C250.5,-112.389 250.5,-99.7388 250.5,-89.1846"/>
<polygon fill="midnightblue" stroke="midnightblue" points="254,-88.8717 250.5,-78.8718 247,-88.8718 254,-88.8717"/>
</g>
<!-- Node7 -->
<g id="node7" class="node"><title>Node7</title>
<polygon fill="white" stroke="#bfbfbf" points="293.5,-60.5 293.5,-78.5 345.5,-78.5 345.5,-60.5 293.5,-60.5"/>
<text text-anchor="middle" x="319.5" y="-67.3" font-family="Helvetica,sans-Serif" font-size="9.00">iostream</text>
</g>
<!-- Node1&#45;&gt;Node7 -->
<g id="edge6" class="edge"><title>Node1&#45;&gt;Node7</title>
<path fill="none" stroke="midnightblue" d="M260.094,-120.435C270.787,-111.448 288.313,-96.7151 301.565,-85.5762"/>
<polygon fill="midnightblue" stroke="midnightblue" points="304.138,-87.9855 309.54,-78.8718 299.634,-82.6271 304.138,-87.9855"/>
</g>
<!-- Node8 -->
<g id="node8" class="node"><title>Node8</title>
<polygon fill="white" stroke="#bfbfbf" points="364,-60.5 364,-78.5 413,-78.5 413,-60.5 364,-60.5"/>
<text text-anchor="middle" x="388.5" y="-67.3" font-family="Helvetica,sans-Serif" font-size="9.00">sstream</text>
</g>
<!-- Node1&#45;&gt;Node8 -->
<g id="edge8" class="edge"><title>Node1&#45;&gt;Node8</title>
<path fill="none" stroke="midnightblue" d="M269.688,-120.435C293.038,-110.622 332.683,-93.9593 359.701,-82.604"/>
<polygon fill="midnightblue" stroke="midnightblue" points="361.167,-85.7844 369.03,-78.6831 358.455,-79.3312 361.167,-85.7844"/>
</g>
<!-- Node9 -->
<g id="node9" class="node"><title>Node9</title>
<polygon fill="white" stroke="#bfbfbf" points="431,-60.5 431,-78.5 472,-78.5 472,-60.5 431,-60.5"/>
<text text-anchor="middle" x="451.5" y="-67.3" font-family="Helvetica,sans-Serif" font-size="9.00">vector</text>
</g>
<!-- Node1&#45;&gt;Node9 -->
<g id="edge9" class="edge"><title>Node1&#45;&gt;Node9</title>
<path fill="none" stroke="midnightblue" d="M289.708,-120.5C324.973,-112.801 377.935,-99.9867 422.5,-84 423.706,-83.5675 424.929,-83.1034 426.158,-82.6169"/>
<polygon fill="midnightblue" stroke="midnightblue" points="427.667,-85.7778 435.461,-78.601 424.893,-79.3511 427.667,-85.7778"/>
</g>
<!-- Node3 -->
<g id="node3" class="node"><title>Node3</title>
<polygon fill="white" stroke="#bfbfbf" points="25.5,-0.5 25.5,-18.5 81.5,-18.5 81.5,-0.5 25.5,-0.5"/>
<text text-anchor="middle" x="53.5" y="-7.3" font-family="Helvetica,sans-Serif" font-size="9.00">exception</text>
</g>
<!-- Node2&#45;&gt;Node3 -->
<g id="edge2" class="edge"><title>Node2&#45;&gt;Node3</title>
<path fill="none" stroke="midnightblue" d="M53.5,-55.3389C53.5,-47.5305 53.5,-37.5122 53.5,-28.9265"/>
<polygon fill="midnightblue" stroke="midnightblue" points="57.0001,-28.7714 53.5,-18.7715 50.0001,-28.7715 57.0001,-28.7714"/>
</g>
<!-- Node2&#45;&gt;Node4 -->
<g id="edge3" class="edge"><title>Node2&#45;&gt;Node4</title>
<path fill="none" stroke="midnightblue" d="M70.2917,-55.3389C81.8213,-46.3022 97.1272,-34.3057 109.006,-24.9954"/>
<polygon fill="midnightblue" stroke="midnightblue" points="111.235,-27.695 116.947,-18.7715 106.917,-22.1856 111.235,-27.695"/>
</g>
</g>
</svg>
