<?xml version="1.0" encoding="UTF-8" standalone="no"?>
<!DOCTYPE svg PUBLIC "-//W3C//DTD SVG 1.1//EN"
 "http://www.w3.org/Graphics/SVG/1.1/DTD/svg11.dtd">
<!-- Generated by graphviz version 2.38.0 (20140413.2041)
 -->
<!-- Title: backtrace_exception::BacktraceException Pages: 1 -->
<svg width="110pt" height="92pt"
 viewBox="0.00 0.00 110.00 92.00" xmlns="http://www.w3.org/2000/svg" xmlns:xlink="http://www.w3.org/1999/xlink">
<g id="graph0" class="graph" transform="scale(1 1) rotate(0) translate(4 88)">
<title>backtrace_exception::BacktraceException</title>
<polygon fill="white" stroke="none" points="-4,4 -4,-88 106,-88 106,4 -4,4"/>
<!-- Node1 -->
<g id="node1" class="node"><title>Node1</title>
<polygon fill="#bfbfbf" stroke="black" points="-7.10543e-15,-0.5 -7.10543e-15,-28.5 102,-28.5 102,-0.5 -7.10543e-15,-0.5"/>
<text text-anchor="start" x="8" y="-17.3" font-family="Helvetica,sans-Serif" font-size="9.00">backtrace_exception</text>
<text text-anchor="middle" x="51" y="-7.3" font-family="Helvetica,sans-Serif" font-size="9.00">::BacktraceException</text>
</g>
<!-- Node2 -->
<g id="node2" class="node"><title>Node2</title>
<g id="a_node2"><a xlink:title="STL class. ">
<polygon fill="white" stroke="#bfbfbf" points="14.5,-65.5 14.5,-83.5 87.5,-83.5 87.5,-65.5 14.5,-65.5"/>
<text text-anchor="middle" x="51" y="-72.3" font-family="Helvetica,sans-Serif" font-size="9.00">std::exception</text>
</a>
</g>
</g>
<!-- Node2&#45;&gt;Node1 -->
<g id="edge1" class="edge"><title>Node2&#45;&gt;Node1</title>
<path fill="none" stroke="midnightblue" d="M51,-55.3209C51,-46.747 51,-36.6999 51,-28.8428"/>
<polygon fill="midnightblue" stroke="midnightblue" points="47.5001,-55.4353 51,-65.4353 54.5001,-55.4354 47.5001,-55.4353"/>
</g>
</g>
</svg>
