<?xml version="1.0" encoding="UTF-8" standalone="no"?>
<!DOCTYPE svg PUBLIC "-//W3C//DTD SVG 1.1//EN"
 "http://www.w3.org/Graphics/SVG/1.1/DTD/svg11.dtd">
<!-- Generated by graphviz version 2.36.0 (20140111.2315)
 -->
<!-- Title: backtrace_exception::BacktraceException::print_backtrace Pages: 1 -->
<svg width="250pt" height="46pt"
 viewBox="0.00 0.00 250.00 46.00" xmlns="http://www.w3.org/2000/svg" xmlns:xlink="http://www.w3.org/1999/xlink">
<g id="graph0" class="graph" transform="scale(1 1) rotate(0) translate(4 42)">
<title>backtrace_exception::BacktraceException::print_backtrace</title>
<polygon fill="white" stroke="none" points="-4,4 -4,-42 246,-42 246,4 -4,4"/>
<!-- Node1 -->
<g id="node1" class="node"><title>Node1</title>
<polygon fill="#bfbfbf" stroke="black" points="0,-0 0,-38 102,-38 102,-0 0,-0"/>
<text text-anchor="start" x="8" y="-26.8" font-family="Helvetica,sans-Serif" font-size="9.00">backtrace_exception</text>
<text text-anchor="start" x="8" y="-16.8" font-family="Helvetica,sans-Serif" font-size="9.00">::BacktraceException</text>
<text text-anchor="middle" x="51" y="-6.8" font-family="Helvetica,sans-Serif" font-size="9.00">::print_backtrace</text>
</g>
<!-- Node2 -->
<g id="node2" class="node"><title>Node2</title>
<g id="a_node2"><a xlink:href="namespacebacktrace__exception.html#a68f7b8565eefc4f9b862c25ec47ce2b7" target="_top" xlink:title="backtrace_exception\l::backtraces_enabled">
<polygon fill="white" stroke="black" points="138,-5 138,-33 242,-33 242,-5 138,-5"/>
<text text-anchor="start" x="146" y="-21.8" font-family="Helvetica,sans-Serif" font-size="9.00">backtrace_exception</text>
<text text-anchor="middle" x="190" y="-11.8" font-family="Helvetica,sans-Serif" font-size="9.00">::backtraces_enabled</text>
</a>
</g>
</g>
<!-- Node1&#45;&gt;Node2 -->
<g id="edge1" class="edge"><title>Node1&#45;&gt;Node2</title>
<path fill="none" stroke="midnightblue" d="M102.236,-19C110.488,-19 119.122,-19 127.609,-19"/>
<polygon fill="midnightblue" stroke="midnightblue" points="127.852,-22.5001 137.852,-19 127.852,-15.5001 127.852,-22.5001"/>
</g>
</g>
</svg>
