<?xml version="1.0" encoding="UTF-8" standalone="no"?>
<!DOCTYPE svg PUBLIC "-//W3C//DTD SVG 1.1//EN"
 "http://www.w3.org/Graphics/SVG/1.1/DTD/svg11.dtd">
<!-- Generated by graphviz version 2.38.0 (20140413.2041)
 -->
<!-- Title: backtrace_exception::BacktraceException Pages: 1 -->
<svg width="172pt" height="188pt"
 viewBox="0.00 0.00 171.50 188.00" xmlns="http://www.w3.org/2000/svg" xmlns:xlink="http://www.w3.org/1999/xlink">
<g id="graph0" class="graph" transform="scale(1 1) rotate(0) translate(4 184)">
<title>backtrace_exception::BacktraceException</title>
<polygon fill="white" stroke="none" points="-4,4 -4,-184 167.5,-184 167.5,4 -4,4"/>
<!-- Node1 -->
<g id="node1" class="node"><title>Node1</title>
<polygon fill="#bfbfbf" stroke="black" points="14.5,-0.5 14.5,-28.5 116.5,-28.5 116.5,-0.5 14.5,-0.5"/>
<text text-anchor="start" x="22.5" y="-17.3" font-family="Helvetica,sans-Serif" font-size="9.00">backtrace_exception</text>
<text text-anchor="middle" x="65.5" y="-7.3" font-family="Helvetica,sans-Serif" font-size="9.00">::BacktraceException</text>
</g>
<!-- Node2 -->
<g id="node2" class="node"><title>Node2</title>
<g id="a_node2"><a xlink:title="STL class. ">
<polygon fill="white" stroke="#bfbfbf" points="0,-95.5 0,-113.5 73,-113.5 73,-95.5 0,-95.5"/>
<text text-anchor="middle" x="36.5" y="-102.3" font-family="Helvetica,sans-Serif" font-size="9.00">std::exception</text>
</a>
</g>
</g>
<!-- Node2&#45;&gt;Node1 -->
<g id="edge1" class="edge"><title>Node2&#45;&gt;Node1</title>
<path fill="none" stroke="midnightblue" d="M42.3872,-85.6354C47.9479,-68.7615 56.1592,-43.8445 61.1506,-28.6983"/>
<polygon fill="midnightblue" stroke="midnightblue" points="38.9821,-84.7858 39.1763,-95.3789 45.6304,-86.9768 38.9821,-84.7858"/>
</g>
<!-- Node3 -->
<g id="node3" class="node"><title>Node3</title>
<g id="a_node3"><a xlink:title="STL class. ">
<polygon fill="white" stroke="#bfbfbf" points="91.5,-95.5 91.5,-113.5 147.5,-113.5 147.5,-95.5 91.5,-95.5"/>
<text text-anchor="middle" x="119.5" y="-102.3" font-family="Helvetica,sans-Serif" font-size="9.00">std::string</text>
</a>
</g>
</g>
<!-- Node3&#45;&gt;Node1 -->
<g id="edge2" class="edge"><title>Node3&#45;&gt;Node1</title>
<path fill="none" stroke="#9a32cd" stroke-dasharray="5,2" d="M109.124,-86.5907C98.7678,-69.7142 83.0702,-44.133 73.5989,-28.6983"/>
<polygon fill="#9a32cd" stroke="#9a32cd" points="106.303,-88.6862 114.517,-95.3789 112.27,-85.0251 106.303,-88.6862"/>
<text text-anchor="middle" x="124.5" y="-69.8" font-family="Helvetica,sans-Serif" font-size="9.00"> _condition</text>
<text text-anchor="middle" x="124.5" y="-59.8" font-family="Helvetica,sans-Serif" font-size="9.00">_backtrace</text>
<text text-anchor="middle" x="124.5" y="-49.8" font-family="Helvetica,sans-Serif" font-size="9.00">_what</text>
</g>
<!-- Node4 -->
<g id="node4" class="node"><title>Node4</title>
<g id="a_node4"><a xlink:title="STL class. ">
<polygon fill="white" stroke="#bfbfbf" points="75.5,-151.5 75.5,-179.5 163.5,-179.5 163.5,-151.5 75.5,-151.5"/>
<text text-anchor="start" x="83.5" y="-168.3" font-family="Helvetica,sans-Serif" font-size="9.00">std::basic_string&lt;</text>
<text text-anchor="middle" x="119.5" y="-158.3" font-family="Helvetica,sans-Serif" font-size="9.00"> char &gt;</text>
</a>
</g>
</g>
<!-- Node4&#45;&gt;Node3 -->
<g id="edge3" class="edge"><title>Node4&#45;&gt;Node3</title>
<path fill="none" stroke="midnightblue" d="M119.5,-141.386C119.5,-131.594 119.5,-120.816 119.5,-113.653"/>
<polygon fill="midnightblue" stroke="midnightblue" points="116,-141.406 119.5,-151.406 123,-141.406 116,-141.406"/>
</g>
</g>
</svg>
