<?xml version="1.0" encoding="UTF-8" standalone="no"?>
<!DOCTYPE svg PUBLIC "-//W3C//DTD SVG 1.1//EN"
 "http://www.w3.org/Graphics/SVG/1.1/DTD/svg11.dtd">
<!-- Generated by graphviz version 2.36.0 (20140111.2315)
 -->
<!-- Title: backtrace_exception::BacktraceException Pages: 1 -->
<svg width="171pt" height="192pt"
 viewBox="0.00 0.00 171.00 192.00" xmlns="http://www.w3.org/2000/svg" xmlns:xlink="http://www.w3.org/1999/xlink">
<g id="graph0" class="graph" transform="scale(1 1) rotate(0) translate(4 188)">
<title>backtrace_exception::BacktraceException</title>
<polygon fill="white" stroke="none" points="-4,4 -4,-188 167,-188 167,4 -4,4"/>
<!-- Node1 -->
<g id="node1" class="node"><title>Node1</title>
<polygon fill="#bfbfbf" stroke="black" points="14,-1 14,-29 116,-29 116,-1 14,-1"/>
<text text-anchor="start" x="22" y="-17.8" font-family="Helvetica,sans-Serif" font-size="9.00">backtrace_exception</text>
<text text-anchor="middle" x="65" y="-7.8" font-family="Helvetica,sans-Serif" font-size="9.00">::BacktraceException</text>
</g>
<!-- Node2 -->
<g id="node2" class="node"><title>Node2</title>
<g id="a_node2"><a xlink:title="STL class. ">
<polygon fill="white" stroke="#bfbfbf" points="-0.5,-97 -0.5,-115 72.5,-115 72.5,-97 -0.5,-97"/>
<text text-anchor="middle" x="36" y="-103.8" font-family="Helvetica,sans-Serif" font-size="9.00">std::exception</text>
</a>
</g>
</g>
<!-- Node2&#45;&gt;Node1 -->
<g id="edge1" class="edge"><title>Node2&#45;&gt;Node1</title>
<path fill="none" stroke="midnightblue" d="M41.9076,-86.8697C47.5059,-69.6887 55.7772,-44.3044 60.7521,-29.0367"/>
<polygon fill="midnightblue" stroke="midnightblue" points="38.4466,-86.1943 38.6763,-96.7866 45.1022,-88.363 38.4466,-86.1943"/>
</g>
<!-- Node3 -->
<g id="node3" class="node"><title>Node3</title>
<g id="a_node3"><a xlink:title="STL class. ">
<polygon fill="white" stroke="#bfbfbf" points="91,-97 91,-115 147,-115 147,-97 91,-97"/>
<text text-anchor="middle" x="119" y="-103.8" font-family="Helvetica,sans-Serif" font-size="9.00">std::string</text>
</a>
</g>
</g>
<!-- Node3&#45;&gt;Node1 -->
<g id="edge2" class="edge"><title>Node3&#45;&gt;Node1</title>
<path fill="none" stroke="#9a32cd" stroke-dasharray="5,2" d="M108.59,-87.8424C98.1641,-70.6594 82.3499,-44.5952 72.9099,-29.0367"/>
<polygon fill="#9a32cd" stroke="#9a32cd" points="105.837,-90.0528 114.017,-96.7866 111.822,-86.4216 105.837,-90.0528"/>
<text text-anchor="middle" x="124" y="-70.8" font-family="Helvetica,sans-Serif" font-size="9.00"> _condition</text>
<text text-anchor="middle" x="124" y="-60.8" font-family="Helvetica,sans-Serif" font-size="9.00">_backtrace</text>
<text text-anchor="middle" x="124" y="-50.8" font-family="Helvetica,sans-Serif" font-size="9.00">_what</text>
</g>
<!-- Node4 -->
<g id="node4" class="node"><title>Node4</title>
<g id="a_node4"><a xlink:title="STL class. ">
<polygon fill="white" stroke="#bfbfbf" points="75,-155 75,-183 163,-183 163,-155 75,-155"/>
<text text-anchor="start" x="83" y="-171.8" font-family="Helvetica,sans-Serif" font-size="9.00">std::basic_string&lt;</text>
<text text-anchor="middle" x="119" y="-161.8" font-family="Helvetica,sans-Serif" font-size="9.00"> char &gt;</text>
</a>
</g>
</g>
<!-- Node4&#45;&gt;Node3 -->
<g id="edge3" class="edge"><title>Node4&#45;&gt;Node3</title>
<path fill="none" stroke="midnightblue" d="M119,-144.588C119,-134.213 119,-122.68 119,-115.159"/>
<polygon fill="midnightblue" stroke="midnightblue" points="115.5,-144.764 119,-154.764 122.5,-144.764 115.5,-144.764"/>
</g>
</g>
</svg>
