<?xml version="1.0" encoding="UTF-8" standalone="no"?>
<!DOCTYPE svg PUBLIC "-//W3C//DTD SVG 1.1//EN"
 "http://www.w3.org/Graphics/SVG/1.1/DTD/svg11.dtd">
<!-- Generated by graphviz version 2.38.0 (20140413.2041)
 -->
<!-- Title: backtrace_exception::BacktraceException::what Pages: 1 -->
<svg width="274pt" height="37pt"
 viewBox="0.00 0.00 274.00 37.00" xmlns="http://www.w3.org/2000/svg" xmlns:xlink="http://www.w3.org/1999/xlink">
<g id="graph0" class="graph" transform="scale(1 1) rotate(0) translate(4 33)">
<title>backtrace_exception::BacktraceException::what</title>
<polygon fill="white" stroke="none" points="-4,4 -4,-33 270,-33 270,4 -4,4"/>
<!-- Node1 -->
<g id="node1" class="node"><title>Node1</title>
<polygon fill="#bfbfbf" stroke="black" points="0,-0.5 0,-28.5 126,-28.5 126,-0.5 0,-0.5"/>
<text text-anchor="start" x="8" y="-17.3" font-family="Helvetica,sans-Serif" font-size="9.00">backtrace_exception</text>
<text text-anchor="middle" x="63" y="-7.3" font-family="Helvetica,sans-Serif" font-size="9.00">::BacktraceException::what</text>
</g>
<!-- Node2 -->
<g id="node2" class="node"><title>Node2</title>
<g id="a_node2"><a xlink:href="namespacebacktrace__exception.html#a68f7b8565eefc4f9b862c25ec47ce2b7" target="_top" xlink:title="backtrace_exception\l::backtraces_enabled">
<polygon fill="white" stroke="black" points="162,-0.5 162,-28.5 266,-28.5 266,-0.5 162,-0.5"/>
<text text-anchor="start" x="170" y="-17.3" font-family="Helvetica,sans-Serif" font-size="9.00">backtrace_exception</text>
<text text-anchor="middle" x="214" y="-7.3" font-family="Helvetica,sans-Serif" font-size="9.00">::backtraces_enabled</text>
</a>
</g>
</g>
<!-- Node1&#45;&gt;Node2 -->
<g id="edge1" class="edge"><title>Node1&#45;&gt;Node2</title>
<path fill="none" stroke="midnightblue" d="M126.326,-14.5C134.717,-14.5 143.319,-14.5 151.692,-14.5"/>
<polygon fill="midnightblue" stroke="midnightblue" points="151.762,-18.0001 161.762,-14.5 151.762,-11.0001 151.762,-18.0001"/>
</g>
</g>
</svg>
