<?xml version="1.0" encoding="UTF-8" standalone="no"?>
<!DOCTYPE svg PUBLIC "-//W3C//DTD SVG 1.1//EN"
 "http://www.w3.org/Graphics/SVG/1.1/DTD/svg11.dtd">
<!-- Generated by graphviz version 2.38.0 (20140413.2041)
 -->
<!-- Title: Graph Legend Pages: 1 -->
<svg width="491pt" height="154pt"
 viewBox="0.00 0.00 490.50 154.00" xmlns="http://www.w3.org/2000/svg" xmlns:xlink="http://www.w3.org/1999/xlink">
<g id="graph0" class="graph" transform="scale(1 1) rotate(0) translate(4 150)">
<title>Graph Legend</title>
<polygon fill="white" stroke="none" points="-4,4 -4,-150 486.5,-150 486.5,4 -4,4"/>
<!-- Node9 -->
<g id="node1" class="node"><title>Node9</title>
<polygon fill="#bfbfbf" stroke="black" points="281,-18 228,-18 228,-0 281,-0 281,-18"/>
<text text-anchor="middle" x="254.5" y="-6.8" font-family="Helvetica,sans-Serif" font-size="9.00">Inherited</text>
</g>
<!-- Node10 -->
<g id="node2" class="node"><title>Node10</title>
<g id="a_node2"><a xlink:href="$classPublicBase.html" xlink:title="PublicBase">
<polygon fill="none" stroke="black" points="63,-82 0,-82 0,-64 63,-64 63,-82"/>
<text text-anchor="middle" x="31.5" y="-70.8" font-family="Helvetica,sans-Serif" font-size="9.00">PublicBase</text>
</a>
</g>
</g>
<!-- Node10&#45;&gt;Node9 -->
<g id="edge1" class="edge"><title>Node10&#45;&gt;Node9</title>
<path fill="none" stroke="midnightblue" d="M70.3778,-61.1909C115.478,-48.6519 188.635,-28.3123 227.778,-17.4296"/>
<polygon fill="midnightblue" stroke="midnightblue" points="69.3504,-57.8437 60.6534,-63.8946 71.2255,-64.5879 69.3504,-57.8437"/>
</g>
<!-- Node11 -->
<g id="node3" class="node"><title>Node11</title>
<g id="a_node3"><a xlink:href="$classTruncated.html" xlink:title="Truncated">
<polygon fill="none" stroke="red" points="60.5,-146 2.5,-146 2.5,-128 60.5,-128 60.5,-146"/>
<text text-anchor="middle" x="31.5" y="-134.8" font-family="Helvetica,sans-Serif" font-size="9.00">Truncated</text>
</a>
</g>
</g>
<!-- Node11&#45;&gt;Node10 -->
<g id="edge2" class="edge"><title>Node11&#45;&gt;Node10</title>
<path fill="none" stroke="midnightblue" d="M31.5,-117.828C31.5,-106.079 31.5,-91.3449 31.5,-82.3053"/>
<polygon fill="midnightblue" stroke="midnightblue" points="28.0001,-117.895 31.5,-127.895 35.0001,-117.895 28.0001,-117.895"/>
</g>
<!-- Node13 -->
<g id="node4" class="node"><title>Node13</title>
<g id="a_node4"><a xlink:href="$classProtectedBase.html" xlink:title="ProtectedBase">
<polygon fill="none" stroke="black" points="158,-82 81,-82 81,-64 158,-64 158,-82"/>
<text text-anchor="middle" x="119.5" y="-70.8" font-family="Helvetica,sans-Serif" font-size="9.00">ProtectedBase</text>
</a>
</g>
</g>
<!-- Node13&#45;&gt;Node9 -->
<g id="edge3" class="edge"><title>Node13&#45;&gt;Node9</title>
<path fill="none" stroke="darkgreen" d="M146.373,-59.6584C173.247,-47.3164 213.802,-28.691 236.847,-18.1074"/>
<polygon fill="darkgreen" stroke="darkgreen" points="144.776,-56.5404 137.149,-63.8946 147.697,-62.9016 144.776,-56.5404"/>
</g>
<!-- Node14 -->
<g id="node5" class="node"><title>Node14</title>
<g id="a_node5"><a xlink:href="$classPrivateBase.html" xlink:title="PrivateBase">
<polygon fill="none" stroke="black" points="242.5,-82 176.5,-82 176.5,-64 242.5,-64 242.5,-82"/>
<text text-anchor="middle" x="209.5" y="-70.8" font-family="Helvetica,sans-Serif" font-size="9.00">PrivateBase</text>
</a>
</g>
</g>
<!-- Node14&#45;&gt;Node9 -->
<g id="edge4" class="edge"><title>Node14&#45;&gt;Node9</title>
<path fill="none" stroke="#8b1a1a" d="M221.389,-55.6198C230.104,-43.6129 241.573,-27.8108 248.472,-18.3053"/>
<polygon fill="#8b1a1a" stroke="#8b1a1a" points="218.424,-53.7457 215.383,-63.8946 224.09,-57.8575 218.424,-53.7457"/>
</g>
<!-- Node15 -->
<g id="node6" class="node"><title>Node15</title>
<polygon fill="none" stroke="#bfbfbf" points="340.5,-82 260.5,-82 260.5,-64 340.5,-64 340.5,-82"/>
<text text-anchor="middle" x="300.5" y="-70.8" font-family="Helvetica,sans-Serif" font-size="9.00">Undocumented</text>
</g>
<!-- Node15&#45;&gt;Node9 -->
<g id="edge5" class="edge"><title>Node15&#45;&gt;Node9</title>
<path fill="none" stroke="midnightblue" d="M288.347,-55.6198C279.439,-43.6129 267.714,-27.8108 260.662,-18.3053"/>
<polygon fill="midnightblue" stroke="midnightblue" points="285.717,-57.9491 294.486,-63.8946 291.339,-53.7781 285.717,-57.9491"/>
</g>
<!-- Node16 -->
<g id="node7" class="node"><title>Node16</title>
<g id="a_node7"><a xlink:href="$classTempl.html" xlink:title="Templ&lt; int &gt;">
<polygon fill="none" stroke="black" points="426,-82 359,-82 359,-64 426,-64 426,-82"/>
<text text-anchor="middle" x="392.5" y="-70.8" font-family="Helvetica,sans-Serif" font-size="9.00">Templ&lt; int &gt;</text>
</a>
</g>
</g>
<!-- Node16&#45;&gt;Node9 -->
<g id="edge6" class="edge"><title>Node16&#45;&gt;Node9</title>
<path fill="none" stroke="midnightblue" d="M365.03,-59.6584C337.559,-47.3164 296.103,-28.691 272.546,-18.1074"/>
<polygon fill="midnightblue" stroke="midnightblue" points="363.903,-62.989 374.459,-63.8946 366.772,-56.6038 363.903,-62.989"/>
</g>
<!-- Node17 -->
<g id="node8" class="node"><title>Node17</title>
<g id="a_node8"><a xlink:href="$classTempl.html" xlink:title="Templ&lt; T &gt;">
<polygon fill="none" stroke="black" points="423.5,-146 361.5,-146 361.5,-128 423.5,-128 423.5,-146"/>
<text text-anchor="middle" x="392.5" y="-134.8" font-family="Helvetica,sans-Serif" font-size="9.00">Templ&lt; T &gt;</text>
</a>
</g>
</g>
<!-- Node17&#45;&gt;Node16 -->
<g id="edge7" class="edge"><title>Node17&#45;&gt;Node16</title>
<path fill="none" stroke="orange" stroke-dasharray="5,2" d="M392.5,-117.828C392.5,-106.079 392.5,-91.3449 392.5,-82.3053"/>
<polygon fill="orange" stroke="orange" points="389,-117.895 392.5,-127.895 396,-117.895 389,-117.895"/>
<text text-anchor="middle" x="405" y="-102.8" font-family="Helvetica,sans-Serif" font-size="9.00">&lt; int &gt;</text>
</g>
<!-- Node18 -->
<g id="node9" class="node"><title>Node18</title>
<g id="a_node9"><a xlink:href="$classUsed.html" xlink:title="Used">
<polygon fill="none" stroke="black" points="482.5,-82 444.5,-82 444.5,-64 482.5,-64 482.5,-82"/>
<text text-anchor="middle" x="463.5" y="-70.8" font-family="Helvetica,sans-Serif" font-size="9.00">Used</text>
</a>
</g>
</g>
<!-- Node18&#45;&gt;Node9 -->
<g id="edge8" class="edge"><title>Node18&#45;&gt;Node9</title>
<path fill="none" stroke="#9a32cd" stroke-dasharray="5,2" d="M434.379,-63.3611C393.722,-51.3003 320.53,-29.5878 281.209,-17.9232"/>
<polygon fill="#9a32cd" stroke="#9a32cd" points="433.63,-66.7897 444.212,-66.2783 435.621,-60.0788 433.63,-66.7897"/>
<text text-anchor="middle" x="401" y="-38.8" font-family="Helvetica,sans-Serif" font-size="9.00">m_usedClass</text>
</g>
</g>
</svg>
