<?xml version="1.0" encoding="UTF-8" standalone="no"?>
<!DOCTYPE svg PUBLIC "-//W3C//DTD SVG 1.1//EN"
 "http://www.w3.org/Graphics/SVG/1.1/DTD/svg11.dtd">
<!-- Generated by graphviz version 2.38.0 (20140413.2041)
 -->
<!-- Title: backtrace_exception::backtraces_enabled Pages: 1 -->
<svg width="274pt" height="94pt"
 viewBox="0.00 0.00 274.00 94.00" xmlns="http://www.w3.org/2000/svg" xmlns:xlink="http://www.w3.org/1999/xlink">
<g id="graph0" class="graph" transform="scale(1 1) rotate(0) translate(4 90)">
<title>backtrace_exception::backtraces_enabled</title>
<polygon fill="white" stroke="none" points="-4,4 -4,-90 270,-90 270,4 -4,4"/>
<!-- Node1 -->
<g id="node1" class="node"><title>Node1</title>
<polygon fill="#bfbfbf" stroke="black" points="0,-26.5 0,-54.5 104,-54.5 104,-26.5 0,-26.5"/>
<text text-anchor="start" x="8" y="-43.3" font-family="Helvetica,sans-Serif" font-size="9.00">backtrace_exception</text>
<text text-anchor="middle" x="52" y="-33.3" font-family="Helvetica,sans-Serif" font-size="9.00">::backtraces_enabled</text>
</g>
<!-- Node2 -->
<g id="node2" class="node"><title>Node2</title>
<g id="a_node2"><a xlink:href="classbacktrace__exception_1_1BacktraceException.html#aef24b0571ea422191026a2292947810a" target="_top" xlink:title="backtrace_exception\l::BacktraceException\l::print_backtrace">
<polygon fill="white" stroke="black" points="152,-47.5 152,-85.5 254,-85.5 254,-47.5 152,-47.5"/>
<text text-anchor="start" x="160" y="-74.3" font-family="Helvetica,sans-Serif" font-size="9.00">backtrace_exception</text>
<text text-anchor="start" x="160" y="-64.3" font-family="Helvetica,sans-Serif" font-size="9.00">::BacktraceException</text>
<text text-anchor="middle" x="203" y="-54.3" font-family="Helvetica,sans-Serif" font-size="9.00">::print_backtrace</text>
</a>
</g>
</g>
<!-- Node1&#45;&gt;Node2 -->
<g id="edge1" class="edge"><title>Node1&#45;&gt;Node2</title>
<path fill="none" stroke="midnightblue" d="M114.194,-51.1781C126.733,-53.3662 139.793,-55.645 151.888,-57.7556"/>
<polygon fill="midnightblue" stroke="midnightblue" points="114.73,-47.7189 104.277,-49.4477 113.527,-54.6147 114.73,-47.7189"/>
</g>
<!-- Node3 -->
<g id="node3" class="node"><title>Node3</title>
<g id="a_node3"><a xlink:href="classbacktrace__exception_1_1BacktraceException.html#a865bf08728344df9ed42bb5f6aef048f" target="_top" xlink:title="backtrace_exception\l::BacktraceException::what">
<polygon fill="white" stroke="black" points="140,-0.5 140,-28.5 266,-28.5 266,-0.5 140,-0.5"/>
<text text-anchor="start" x="148" y="-17.3" font-family="Helvetica,sans-Serif" font-size="9.00">backtrace_exception</text>
<text text-anchor="middle" x="203" y="-7.3" font-family="Helvetica,sans-Serif" font-size="9.00">::BacktraceException::what</text>
</a>
</g>
</g>
<!-- Node1&#45;&gt;Node3 -->
<g id="edge2" class="edge"><title>Node1&#45;&gt;Node3</title>
<path fill="none" stroke="midnightblue" d="M114.379,-29.7895C122.779,-28.3238 131.408,-26.818 139.822,-25.3498"/>
<polygon fill="midnightblue" stroke="midnightblue" points="113.527,-26.3853 104.277,-31.5523 114.73,-33.2811 113.527,-26.3853"/>
</g>
</g>
</svg>
