<?xml version="1.0" encoding="UTF-8" standalone="no"?>
<!DOCTYPE svg PUBLIC "-//W3C//DTD SVG 1.1//EN"
 "http://www.w3.org/Graphics/SVG/1.1/DTD/svg11.dtd">
<!-- Generated by graphviz version 2.38.0 (20140413.2041)
 -->
<!-- Title: backtrace_exception::backtraces_enabled Pages: 1 -->
<svg width="250pt" height="47pt"
 viewBox="0.00 0.00 250.00 47.00" xmlns="http://www.w3.org/2000/svg" xmlns:xlink="http://www.w3.org/1999/xlink">
<g id="graph0" class="graph" transform="scale(1 1) rotate(0) translate(4 43)">
<title>backtrace_exception::backtraces_enabled</title>
<polygon fill="white" stroke="none" points="-4,4 -4,-43 246,-43 246,4 -4,4"/>
<!-- Node1 -->
<g id="node1" class="node"><title>Node1</title>
<polygon fill="#bfbfbf" stroke="black" points="0,-5.5 0,-33.5 104,-33.5 104,-5.5 0,-5.5"/>
<text text-anchor="start" x="8" y="-22.3" font-family="Helvetica,sans-Serif" font-size="9.00">backtrace_exception</text>
<text text-anchor="middle" x="52" y="-12.3" font-family="Helvetica,sans-Serif" font-size="9.00">::backtraces_enabled</text>
</g>
<!-- Node2 -->
<g id="node2" class="node"><title>Node2</title>
<g id="a_node2"><a xlink:href="classbacktrace__exception_1_1BacktraceException.html#aef24b0571ea422191026a2292947810a" target="_top" xlink:title="backtrace_exception\l::BacktraceException\l::print_backtrace">
<polygon fill="white" stroke="black" points="140,-0.5 140,-38.5 242,-38.5 242,-0.5 140,-0.5"/>
<text text-anchor="start" x="148" y="-27.3" font-family="Helvetica,sans-Serif" font-size="9.00">backtrace_exception</text>
<text text-anchor="start" x="148" y="-17.3" font-family="Helvetica,sans-Serif" font-size="9.00">::BacktraceException</text>
<text text-anchor="middle" x="191" y="-7.3" font-family="Helvetica,sans-Serif" font-size="9.00">::print_backtrace</text>
</a>
</g>
</g>
<!-- Node1&#45;&gt;Node2 -->
<g id="edge1" class="edge"><title>Node1&#45;&gt;Node2</title>
<path fill="none" stroke="midnightblue" d="M114.039,-19.5C122.67,-19.5 131.461,-19.5 139.855,-19.5"/>
<polygon fill="midnightblue" stroke="midnightblue" points="114.014,-16.0001 104.014,-19.5 114.014,-23.0001 114.014,-16.0001"/>
</g>
</g>
</svg>
